# xmcd CD database file
#
# Track frame offsets:
#	150
#	11910
#	23355
#	43197
#	61110
#	73180
#	80977
#	95862
#	111122
#	126465
#	139657
#	152602
#	164330
#	176365
#	187297
#	206780
#	222042
#	240742
#
# Disc length: 3385 seconds
#
# Revision: 2
# Processed by: cddbd v1.5.1PL0 Copyright (c) Steve Scherf et al.
# Submitted via: CDex 1.51
#
DISCID=0b0d3712
DTITLE=Blues and Soul - Volume 1
DYEAR=1900
DGENRE=Blues
TTITLE0=Sam and Dave-Soul Man
TTITLE1=The Drifters-Saturday Night at the Movi
TTITLE2=James Brown-You can't Keep a Good Man D
TTITLE3=Percy Sledge-When a Man Loves a Woman
TTITLE4=Brook Benton-Kiddio
TTITLE5=Eddie Floyd-Knock on Wood
TTITLE6=George McCray-Rock your Baby
TTITLE7=Mary Wells-My Guy
TTITLE8=Dobie Gray-Feelings
TTITLE9=Ben E King- Stand by Me
TTITLE10=Martha Reeves-It's the Same Old Song
TTITLE11=Jerry Butler-Only the Stong Survive
TTITLE12=The Tymes-You Little Trustmaker
TTITLE13=The Platters-Some gets in Your Eyes
TTITLE14=Supremes-Stop in the Name of Love
TTITLE15=Johnny Bristol-Someday We'll be Togethe
TTITLE16=Lou Rawls-Lady Love
TTITLE17=Temptations- My Girl
EXTD=
EXTT0=
EXTT1=
EXTT2=
EXTT3=
EXTT4=
EXTT5=
EXTT6=
EXTT7=
EXTT8=
EXTT9=
EXTT10=
EXTT11=
EXTT12=
EXTT13=
EXTT14=
EXTT15=
EXTT16=
EXTT17=
PLAYORDER=
